<?xml version="1.0" encoding="UTF-8" standalone="no"?>
<!-- Created with Inkscape (http://www.inkscape.org/) -->

<svg
   width="724mm"
   height="116mm"
   viewBox="0 0 724 116"
   version="1.1"
   id="svg5"
   xmlns="http://www.w3.org/2000/svg"
   xmlns:svg="http://www.w3.org/2000/svg">
  <defs
     id="defs2">
    <rect
       x="391.14556"
       y="0"
       width="2273.589"
       height="386.08441"
       id="rect236" />
  </defs>
  <g
     id="layer1">
    <g
       aria-label="Бабайкина сарайка"
       transform="matrix(0.87250116,0,0,0.86517039,-206.60187,20.191269)"
       id="text234"
       style="font-weight:bold;font-size:74.6667px;font-family:'Liberation Sans';-inkscape-font-specification:'Liberation Sans Bold';white-space:pre;shape-inside:url(#rect236);fill:none;stroke:#ff0000;stroke-width:7.145">
      <path
         d="m 436.28192,52.199063 q 0,6.817712 -4.70312,10.937506 -4.70313,4.119793 -12.97918,4.119793 H 397.27149 V 15.886546 h 33.76043 v 5.687503 h -26.79689 v 16.041674 h 13.92709 q 8.60417,0 13.34376,3.828127 4.77604,3.828127 4.77604,10.755213 z m -7,0.07292 q 0,-4.41146 -2.98959,-6.744795 -2.98958,-2.369793 -8.96875,-2.369793 h -13.08855 v 18.593759 h 13.38022 q 5.97917,0 8.82292,-2.479168 2.84375,-2.479167 2.84375,-7.000003 z"
         style="font-weight:normal;-inkscape-font-specification:'Liberation Sans';fill:#484537;stroke:none"
         id="path465" />
      <path
         d="m 455.24026,67.985529 q -5.94271,0 -8.93229,-3.135418 -2.98959,-3.135418 -2.98959,-8.604171 0,-6.125003 4.01042,-9.406254 4.04688,-3.281252 13.01563,-3.500002 l 8.85938,-0.145833 v -2.151043 q 0,-4.812502 -2.04166,-6.890628 -2.04167,-2.078126 -6.41667,-2.078126 -4.41147,0 -6.41667,1.494792 -2.00521,1.494793 -2.40626,4.776044 l -6.85417,-0.619792 q 1.67709,-10.645838 15.82293,-10.645838 7.4375,0 11.19271,3.427085 3.75521,3.390626 3.75521,9.843754 v 16.989592 q 0,2.916668 0.76563,4.41146 0.76562,1.458334 2.91667,1.458334 0.94791,0 2.15104,-0.255208 v 4.083335 q -2.47917,0.583334 -5.06771,0.583334 -3.64584,0 -5.32292,-1.895834 -1.64063,-1.932293 -1.85938,-6.015628 h -0.21875 q -2.51562,4.520835 -5.86979,6.416669 -3.31771,1.859376 -8.09376,1.859376 z m 1.4948,-4.921877 q 3.60937,0 6.41667,-1.640626 2.80729,-1.640626 4.41146,-4.484377 1.64062,-2.88021 1.64062,-5.906253 v -3.244793 l -7.18229,0.145833 q -4.63021,0.07292 -7.03646,0.947918 -2.3698,0.875 -3.64584,2.697917 -1.27604,1.822918 -1.27604,4.776044 0,3.208335 1.71354,4.958336 1.75,1.750001 4.95834,1.750001 z"
         style="font-weight:normal;-inkscape-font-specification:'Liberation Sans';fill:#484537;stroke:none"
         id="path467" />
      <path
         d="m 514.41217,48.95427 q 0,-7.364587 -2.40625,-10.82813 -2.40625,-3.500002 -7.83855,-3.500002 -5.79688,0 -8.53125,3.53646 -2.69792,3.53646 -2.69792,10.791672 0,7.07292 2.51563,10.645839 2.55208,3.53646 7.98437,3.53646 5.8698,0 8.42188,-3.390627 2.55209,-3.427085 2.55209,-10.791672 z m -8.85938,-19.140634 q 8.09375,0 11.92188,4.776044 3.82813,4.739586 3.82813,14.291674 0,9.661462 -4.5573,14.401048 -4.55729,4.703127 -13.23438,4.703127 -8.96875,0 -13.23438,-5.869794 -4.22917,-5.869795 -4.22917,-18.046884 0,-6.197919 0.83854,-10.864588 0.83855,-4.703128 2.625,-8.093754 1.78646,-3.390627 4.59376,-5.651045 2.84375,-2.260417 7.10938,-3.645835 4.30208,-1.385417 18.22917,-3.317709 v 5.869794 q -15.27605,1.968751 -19.79688,3.75521 -4.48438,1.786459 -6.3073,5.687503 -1.82292,3.901043 -1.96875,11.666672 1.56771,-4.557294 5.25,-7.109378 3.6823,-2.552085 8.9323,-2.552085 z"
         style="font-weight:normal;-inkscape-font-specification:'Liberation Sans';fill:#484537;stroke:none"
         id="path469" />
      <path
         d="m 537.81843,67.985529 q -5.94271,0 -8.9323,-3.135418 -2.98958,-3.135418 -2.98958,-8.604171 0,-6.125003 4.01042,-9.406254 4.04687,-3.281252 13.01563,-3.500002 l 8.85938,-0.145833 v -2.151043 q 0,-4.812502 -2.04167,-6.890628 -2.04167,-2.078126 -6.41667,-2.078126 -4.41146,0 -6.41667,1.494792 -2.00521,1.494793 -2.40625,4.776044 l -6.85417,-0.619792 q 1.67708,-10.645838 15.82292,-10.645838 7.43751,0 11.19272,3.427085 3.75521,3.390626 3.75521,9.843754 v 16.989592 q 0,2.916668 0.76562,4.41146 0.76563,1.458334 2.91667,1.458334 0.94792,0 2.15104,-0.255208 v 4.083335 q -2.47917,0.583334 -5.06771,0.583334 -3.64583,0 -5.32292,-1.895834 -1.64062,-1.932293 -1.85937,-6.015628 h -0.21875 q -2.51563,4.520835 -5.8698,6.416669 -3.31771,1.859376 -8.09375,1.859376 z m 1.49479,-4.921877 q 3.60938,0 6.41667,-1.640626 2.80729,-1.640626 4.41146,-4.484377 1.64063,-2.88021 1.64063,-5.906253 v -3.244793 l -7.1823,0.145833 q -4.63021,0.07292 -7.03646,0.947918 -2.36979,0.875 -3.64584,2.697917 -1.27604,1.822918 -1.27604,4.776044 0,3.208335 1.71354,4.958336 1.75001,1.750001 4.95834,1.750001 z"
         style="font-weight:normal;-inkscape-font-specification:'Liberation Sans';fill:#484537;stroke:none"
         id="path471" />
      <path
         d="M 575.77157,27.808427 V 49.39177 l -0.36458,10.098964 18.19271,-31.682307 h 7.1823 v 39.447935 h -6.27084 V 43.193851 q 0,-1.312501 0.10938,-3.97396 0.14583,-2.66146 0.25521,-3.791669 l -18.44793,31.82814 h -7 V 27.808427 Z m 9.40626,-4.302086 q -12.97918,0 -13.38022,-11.666672 h 5.97917 q 0.4375,7.255212 7.40105,7.255212 6.96354,0 7.40104,-7.255212 h 5.97917 Q 598.157,23.506341 585.17783,23.506341 Z"
         style="font-weight:normal;-inkscape-font-specification:'Liberation Sans';fill:#484537;stroke:none"
         id="path473" />
      <path
         d="m 610.99034,27.808427 h 6.56251 v 17.281258 q 1.09375,0 1.96875,-0.291667 0.875,-0.291667 1.82292,-1.203125 0.94791,-0.947917 2.15104,-2.625002 1.20312,-1.677084 8.3125,-13.161464 h 6.85417 l -7.875,11.848964 q -3.39063,4.958335 -4.66667,6.015628 l 12.8698,21.583343 h -7.29167 l -10.13542,-18.1198 q -0.69271,0.291667 -1.89584,0.510417 -1.16667,0.21875 -2.11458,0.21875 v 17.390633 h -6.56251 z"
         style="font-weight:normal;-inkscape-font-specification:'Liberation Sans';fill:#484537;stroke:none"
         id="path475" />
      <path
         d="M 650.1466,27.808427 V 49.39177 l -0.36458,10.098964 18.19272,-31.682307 h 7.18229 v 39.447935 h -6.27084 V 43.193851 q 0,-1.312501 0.10938,-3.97396 0.14583,-2.66146 0.25521,-3.791669 l -18.44793,31.82814 h -7 V 27.808427 Z"
         style="font-weight:normal;-inkscape-font-specification:'Liberation Sans';fill:#484537;stroke:none"
         id="path477" />
      <path
         d="m 692.07373,27.808427 v 16.697924 h 17.75521 V 27.808427 h 6.56251 v 39.447935 h -6.56251 V 49.282395 h -17.75521 v 17.973967 h -6.56251 V 27.808427 Z"
         style="font-weight:normal;-inkscape-font-specification:'Liberation Sans';fill:#484537;stroke:none"
         id="path479" />
      <path
         d="m 736.66227,67.985529 q -5.94271,0 -8.9323,-3.135418 -2.98958,-3.135418 -2.98958,-8.604171 0,-6.125003 4.01042,-9.406254 4.04687,-3.281252 13.01563,-3.500002 l 8.85938,-0.145833 v -2.151043 q 0,-4.812502 -2.04167,-6.890628 -2.04167,-2.078126 -6.41667,-2.078126 -4.41146,0 -6.41667,1.494792 -2.00521,1.494793 -2.40625,4.776044 l -6.85417,-0.619792 q 1.67708,-10.645838 15.82292,-10.645838 7.43751,0 11.19272,3.427085 3.75521,3.390626 3.75521,9.843754 v 16.989592 q 0,2.916668 0.76562,4.41146 0.76563,1.458334 2.91667,1.458334 0.94792,0 2.15104,-0.255208 v 4.083335 q -2.47916,0.583334 -5.06771,0.583334 -3.64583,0 -5.32292,-1.895834 -1.64062,-1.932293 -1.85937,-6.015628 h -0.21875 q -2.51563,4.520835 -5.8698,6.416669 -3.31771,1.859376 -8.09375,1.859376 z m 1.49479,-4.921877 q 3.60938,0 6.41667,-1.640626 2.80729,-1.640626 4.41146,-4.484377 1.64063,-2.88021 1.64063,-5.906253 v -3.244793 l -7.1823,0.145833 q -4.63021,0.07292 -7.03646,0.947918 -2.36979,0.875 -3.64583,2.697917 -1.27605,1.822918 -1.27605,4.776044 0,3.208335 1.71355,4.958336 1.75,1.750001 4.95833,1.750001 z"
         style="font-weight:normal;-inkscape-font-specification:'Liberation Sans';fill:#484537;stroke:none"
         id="path481" />
      <path
         d="m 793.86543,47.350103 q 0,7.875004 2.47917,11.666672 2.47917,3.791668 7.47396,3.791668 3.5,0 5.83334,-1.895834 2.36979,-1.895834 2.91667,-5.833336 l 6.63542,0.4375 q -0.76563,5.687503 -4.84896,9.07813 -4.08334,3.390626 -10.35418,3.390626 -8.27604,0 -12.65104,-5.213544 -4.33855,-5.250002 -4.33855,-15.276049 0,-9.95313 4.375,-15.166674 4.37501,-5.250002 12.54168,-5.250002 6.05208,0 10.02604,3.135418 4.01042,3.135418 5.03126,8.640629 l -6.7448,0.510417 q -0.51042,-3.281252 -2.58854,-5.213544 -2.07813,-1.932293 -5.90625,-1.932293 -5.21355,0 -7.54688,3.463544 -2.33334,3.463543 -2.33334,11.666672 z"
         style="font-weight:normal;-inkscape-font-specification:'Liberation Sans';fill:#484537;stroke:none"
         id="path483" />
      <path
         d="m 836.26649,67.985529 q -5.94271,0 -8.9323,-3.135418 -2.98958,-3.135418 -2.98958,-8.604171 0,-6.125003 4.01041,-9.406254 4.04688,-3.281252 13.01564,-3.500002 l 8.85938,-0.145833 v -2.151043 q 0,-4.812502 -2.04167,-6.890628 -2.04167,-2.078126 -6.41667,-2.078126 -4.41146,0 -6.41667,1.494792 -2.00521,1.494793 -2.40625,4.776044 l -6.85417,-0.619792 q 1.67708,-10.645838 15.82292,-10.645838 7.4375,0 11.19271,3.427085 3.75521,3.390626 3.75521,9.843754 v 16.989592 q 0,2.916668 0.76563,4.41146 0.76563,1.458334 2.91667,1.458334 0.94792,0 2.15104,-0.255208 v 4.083335 q -2.47917,0.583334 -5.06771,0.583334 -3.64583,0 -5.32292,-1.895834 -1.64062,-1.932293 -1.85937,-6.015628 h -0.21875 q -2.51563,4.520835 -5.8698,6.416669 -3.31771,1.859376 -8.09375,1.859376 z m 1.49479,-4.921877 q 3.60938,0 6.41667,-1.640626 2.80729,-1.640626 4.41146,-4.484377 1.64063,-2.88021 1.64063,-5.906253 v -3.244793 l -7.1823,0.145833 q -4.63021,0.07292 -7.03646,0.947918 -2.36979,0.875 -3.64584,2.697917 -1.27604,1.822918 -1.27604,4.776044 0,3.208335 1.71354,4.958336 1.75,1.750001 4.95834,1.750001 z"
         style="font-weight:normal;-inkscape-font-specification:'Liberation Sans';fill:#484537;stroke:none"
         id="path485" />
      <path
         d="m 901.08943,47.350103 q 0,20.635426 -14.51042,20.635426 -9.11459,0 -12.25,-6.85417 h -0.1823 q 0.14584,0.291667 0.14584,6.19792 v 15.421882 h -6.56251 V 35.865722 q 0,-6.088544 -0.21875,-8.057295 h 6.34376 q 0.0365,0.145833 0.10937,1.057292 0.0729,0.875 0.14584,2.734376 0.10937,1.859376 0.10937,2.552085 h 0.14583 q 1.75,-3.645835 4.63021,-5.322919 2.88021,-1.713543 7.58334,-1.713543 7.29167,0 10.90105,4.885419 3.60937,4.885419 3.60937,15.348966 z m -6.89062,0.145833 q 0,-8.239587 -2.22396,-11.776047 -2.22396,-3.53646 -7.07292,-3.53646 -3.90105,0 -6.12501,1.640626 -2.1875,1.640625 -3.35416,5.140627 -1.13021,3.463543 -1.13021,9.041671 0,7.765629 2.47916,11.447922 2.47917,3.682294 8.0573,3.682294 4.88542,0 7.10938,-3.572919 2.26042,-3.609376 2.26042,-12.067714 z"
         style="font-weight:normal;-inkscape-font-specification:'Liberation Sans';fill:#484537;stroke:none"
         id="path487" />
      <path
         d="m 919.31861,67.985529 q -5.94271,0 -8.9323,-3.135418 -2.98958,-3.135418 -2.98958,-8.604171 0,-6.125003 4.01042,-9.406254 4.04688,-3.281252 13.01563,-3.500002 l 8.85938,-0.145833 v -2.151043 q 0,-4.812502 -2.04167,-6.890628 -2.04167,-2.078126 -6.41667,-2.078126 -4.41146,0 -6.41667,1.494792 -2.00521,1.494793 -2.40625,4.776044 l -6.85417,-0.619792 q 1.67708,-10.645838 15.82293,-10.645838 7.4375,0 11.19271,3.427085 3.75521,3.390626 3.75521,9.843754 v 16.989592 q 0,2.916668 0.76562,4.41146 0.76563,1.458334 2.91667,1.458334 0.94792,0 2.15104,-0.255208 v 4.083335 q -2.47916,0.583334 -5.06771,0.583334 -3.64583,0 -5.32291,-1.895834 -1.64063,-1.932293 -1.85938,-6.015628 h -0.21875 q -2.51563,4.520835 -5.8698,6.416669 -3.31771,1.859376 -8.09375,1.859376 z m 1.49479,-4.921877 q 3.60938,0 6.41667,-1.640626 2.8073,-1.640626 4.41146,-4.484377 1.64063,-2.88021 1.64063,-5.906253 v -3.244793 l -7.1823,0.145833 q -4.63021,0.07292 -7.03646,0.947918 -2.36979,0.875 -3.64583,2.697917 -1.27605,1.822918 -1.27605,4.776044 0,3.208335 1.71355,4.958336 1.75,1.750001 4.95833,1.750001 z"
         style="font-weight:normal;-inkscape-font-specification:'Liberation Sans';fill:#484537;stroke:none"
         id="path489" />
      <path
         d="M 957.27175,27.808427 V 49.39177 l -0.36458,10.098964 18.19272,-31.682307 h 7.18229 v 39.447935 h -6.27083 V 43.193851 q 0,-1.312501 0.10937,-3.97396 0.14584,-2.66146 0.25521,-3.791669 L 957.928,67.256362 h -7 V 27.808427 Z m 9.40626,-4.302086 q -12.97917,0 -13.38022,-11.666672 h 5.97917 q 0.4375,7.255212 7.40105,7.255212 6.96354,0 7.40104,-7.255212 h 5.97917 q -0.40104,11.666672 -13.38021,11.666672 z"
         style="font-weight:normal;-inkscape-font-specification:'Liberation Sans';fill:#484537;stroke:none"
         id="path491" />
      <path
         d="m 992.49054,27.808427 h 6.56251 v 17.281258 q 1.09375,0 1.96875,-0.291667 0.875,-0.291667 1.8229,-1.203125 0.9479,-0.947917 2.1511,-2.625002 1.2031,-1.677084 8.3125,-13.161464 h 6.8541 l -7.875,11.848964 q -3.3906,4.958335 -4.6666,6.015628 l 12.8698,21.583343 h -7.2917 l -10.1354,-18.1198 q -0.6927,0.291667 -1.8959,0.510417 -1.1666,0.21875 -2.11455,0.21875 v 17.390633 h -6.56251 z"
         style="font-weight:normal;-inkscape-font-specification:'Liberation Sans';fill:#484537;stroke:none"
         id="path493" />
      <path
         d="m 1036.8604,67.985529 q -5.9428,0 -8.9323,-3.135418 -2.9896,-3.135418 -2.9896,-8.604171 0,-6.125003 4.0104,-9.406254 4.0469,-3.281252 13.0156,-3.500002 l 8.8594,-0.145833 v -2.151043 q 0,-4.812502 -2.0417,-6.890628 -2.0416,-2.078126 -6.4166,-2.078126 -4.4115,0 -6.4167,1.494792 -2.0052,1.494793 -2.4063,4.776044 l -6.8541,-0.619792 q 1.6771,-10.645838 15.8229,-10.645838 7.4375,0 11.1927,3.427085 3.7552,3.390626 3.7552,9.843754 v 16.989592 q 0,2.916668 0.7657,4.41146 0.7656,1.458334 2.9166,1.458334 0.9479,0 2.1511,-0.255208 v 4.083335 q -2.4792,0.583334 -5.0677,0.583334 -3.6459,0 -5.323,-1.895834 -1.6406,-1.932293 -1.8593,-6.015628 h -0.2188 q -2.5156,4.520835 -5.8698,6.416669 -3.3177,1.859376 -8.0937,1.859376 z m 1.4948,-4.921877 q 3.6093,0 6.4166,-1.640626 2.8073,-1.640626 4.4115,-4.484377 1.6406,-2.88021 1.6406,-5.906253 v -3.244793 l -7.1823,0.145833 q -4.6302,0.07292 -7.0364,0.947918 -2.3698,0.875 -3.6459,2.697917 -1.276,1.822918 -1.276,4.776044 0,3.208335 1.7135,4.958336 1.75,1.750001 4.9584,1.750001 z"
         style="font-weight:normal;-inkscape-font-specification:'Liberation Sans';fill:#484537;stroke:none"
         id="path495" />
    </g>
    <path
       d="m 55.988509,2.2959397 a 7.8417379,7.8417379 0 0 1 11.088187,0 L 85.057814,20.277058 V 10.137578 A 3.9208691,3.9208691 0 0 1 88.97893,6.2167585 h 7.841638 a 3.9208691,3.9208691 0 0 1 3.920822,3.9208195 v 25.823053 l 18.45947,18.451476 a 3.9258219,3.9258219 0 0 1 -5.55179,5.552096 L 61.532602,7.8400327 9.4164357,59.964203 A 3.9258219,3.9258219 0 1 1 3.8646359,54.412107 Z"
       id="path450"
       style="stroke-width:7.84173" />
    <path
       d="m 85.607008,61.477518 a 11.762607,11.762607 0 0 0 -13.660477,2.039103 l -0.148195,0.17782 a 11.762607,11.762607 0 0 0 -2.047988,13.66049 11.762607,11.762607 0 0 0 0,22.427421 11.762607,11.762607 0 0 0 -0.939526,8.390528 H 26.253521 A 11.762607,11.762607 0 0 1 14.490766,96.410129 V 63.419993 L 61.541202,16.36957 98.585818,53.41389 a 11.762607,11.762607 0 0 0 -12.970211,8.076972"
       id="path452"
       style="stroke-width:7.84173" />
    <path
       d="m 101.98056,65.876698 -0.33788,-1.161813 c -1.41966,-4.806697 -8.226037,-4.806697 -9.645411,0 l -0.337872,1.161813 a 5.0187122,5.0187122 0 0 1 -7.222205,2.995518 l -1.066969,-0.580902 c -4.399179,-2.400689 -9.214178,2.415497 -6.822382,6.814678 l 0.589795,1.066967 a 5.0187122,5.0187122 0 0 1 -2.995814,7.2145 l -1.161813,0.35269 c -4.807006,1.410775 -4.807006,8.218341 0,9.637714 l 1.161813,0.337873 a 5.0187122,5.0187122 0 0 1 2.995814,7.222204 l -0.580912,1.06697 c -2.400679,4.39918 2.415508,9.21387 6.814392,6.82238 l 1.066968,-0.5898 a 5.0187122,5.0187122 0 0 1 7.214499,2.99553 l 0.352691,1.16772 c 1.410774,4.79902 8.218336,4.79902 9.637696,0 l 0.33788,-1.17663 a 5.0187122,5.0187122 0 0 1 7.2225,-2.9798 l 1.06697,0.58091 c 4.39917,2.39179 9.21417,-2.4244 6.8224,-6.82239 l -0.58981,-1.06697 a 5.0187122,5.0187122 0 0 1 2.99552,-7.214202 l 1.16774,-0.343795 c 4.799,-1.419671 4.799,-8.226046 0,-9.64542 l -1.17663,-0.337873 a 5.0187122,5.0187122 0 0 1 -2.9798,-7.222204 l 0.5809,-1.066969 c 2.39178,-4.39918 -2.4244,-9.214178 -6.82239,-6.822383 l -1.06697,0.586834 a 5.0187122,5.0187122 0 0 1 -7.2145,-2.995516 z m -5.159992,34.440912 a 11.762611,11.762611 0 1 1 0,-23.525217 11.762611,11.762611 0 0 1 0,23.525217"
       id="path454"
       style="stroke-width:7.84173" />
  </g>
</svg>
